<svg width="3021" height="6965" viewBox="0 0 3021 6965" fill="none" xmlns="http://www.w3.org/2000/svg">
<g clip-path="url(#clip0_21_64)">
<path d="M2781.56 1548C2753.88 1604.29 2664.56 1613 2664.56 1613C2648.56 1638 2622.01 1654.18 2570.56 1679C2581.56 1655 2586.56 1626 2561.56 1613C2553.9 1632.82 2532.41 1643.7 2486.56 1663L2489.91 1653.67C2499.96 1625.64 2497.04 1594.6 2471.09 1579.97C2374.52 1525.52 2103.9 1467.06 1893.57 1450C1893.57 1550 2108.57 1660 2190.57 1805C2214.44 1820.22 2246.24 1821.05 2291.57 1821C2283.4 1840.46 2272.85 1851.41 2246.57 1871C2290.05 1908.7 2313.51 1921.7 2353.56 1929C2329.56 2021 2092.57 1929 1952.57 1945C2020.32 1739.77 1520.15 1430.41 1249.27 1554.7C1247.12 1555.69 1245.01 1552.58 1246.77 1551L1317.71 1487C1263.14 1490.57 1210.4 1497.08 1159.57 1506.21C1101.95 1516.57 1046.78 1530.31 994.168 1547C934.631 1565.89 878.378 1588.54 825.57 1614.34C772.733 1640.15 723.345 1669.1 677.57 1700.56C623.277 1737.87 574.064 1778.7 530.204 1822C486.103 1865.54 447.413 1911.56 414.409 1959C382.406 2005 355.748 2052.33 334.687 2100C310.221 2155.38 293.307 2211.23 284.34 2266C277.028 2310.66 274.999 2354.6 278.465 2397C280.418 2420.87 284.113 2444.26 289.589 2467C99.27 1989.25 504.571 1400 1088.57 1272.72C1162.66 1256.57 1173.66 1256.38 1175.29 1256.65C1061.05 1214.64 974.09 1207.54 886.588 1209.65C882.742 1209.75 880.957 1204.89 883.972 1202.51C930.114 1165.96 972.779 1135.34 1015.57 1110.9C1071.36 1079.03 1127.37 1057.65 1191.57 1047.28C1232.54 1040.66 1276.85 1038.52 1326.57 1041C1224.06 939.538 1184.65 869.29 1136.81 741.818C1135.31 737.817 1140.3 734.568 1143.37 737.548C1258.89 849.958 1337.39 901.77 1504.57 944.999C1404.96 796.116 1362.09 707.315 1303.19 555.196C1301.64 551.187 1306.66 547.887 1309.73 550.888C1428.85 667.024 1509.42 732.433 1672.57 842.999C1565.77 673.497 1538.11 577.105 1555.03 413.972C1555.44 409.968 1561.01 409.394 1562.75 413.024C1805.73 919.544 1992.22 716.981 2113.57 850.999C2235.94 986.153 2189.97 1109.51 2352.56 1199C2440.31 1247.29 2457.56 1273 2600.56 1273C2706.87 1273 2813.35 1483.36 2781.56 1548Z" fill="#7A5180"/>
<path d="M2291.57 1770C2160.57 1710 2041.48 1516.46 1943.57 1507C2136.57 1516 2138.56 1615 2327.56 1710C2516.56 1805 2645.21 1663.5 2871.56 1690C2977.17 1702.37 3019.95 1838.85 3020.56 1840C3020.56 1840 2990.94 1789.96 2964.56 1770C2971.34 1818.33 2954.13 1840.59 2926.56 1881C2926.56 1881 2991.66 1744.69 2857.56 1710C2703.56 1670.16 2525.79 1877.28 2291.57 1770Z" fill="#7A5180"/>
<path d="M874.092 3.4798C969.292 283.173 1438.74 312.037 1493.22 592.954C1493.99 596.912 1489.03 599.325 1486.32 596.339C1282.72 371.911 769.995 440.451 866.045 4.10944C866.927 0.102655 872.77 -0.404097 874.092 3.4798Z" fill="#7A5180"/>
<path d="M1378.94 830.611C1252.75 422.857 574.948 486.386 360.314 102.389C358.166 98.5477 352.078 100.774 352.526 105.152C415.713 722.615 928.815 476.792 1372.59 834.835C1375.63 837.292 1380.1 834.35 1378.94 830.611Z" fill="#7A5180"/>
<path d="M816.314 1944C252.57 2702 2327.56 2467 2812.57 3029C2870.36 3095.97 2898.88 3209 2889.1 3325C2883.77 3346.38 2870.71 3369.13 2850.78 3393C2848.47 3395.77 2846.06 3398.56 2843.57 3401.36C2835.78 3410.1 2827.09 3418.98 2817.56 3428C2778.14 3465.29 2724.2 3504.86 2658.57 3545.91C2583.71 3592.72 2493.64 3641.46 2392.57 3690.94C2315.36 3728.74 2231.74 3766.97 2143.57 3805.11C2064.44 3839.33 1981.66 3873.48 1896.57 3907.17C1812.38 3940.5 1725.95 3973.39 1638.57 4005.45C1563.98 4032.83 1488.71 4059.6 1413.57 4085.56C1337.48 4111.84 1261.54 4137.27 1186.57 4161.62C1107.82 4187.2 1030.16 4211.58 954.568 4234.49C883.823 4255.94 814.888 4276.09 748.568 4294.73C677.205 4314.78 608.87 4333.08 544.568 4349.35C468.746 4368.53 398.53 4384.87 335.568 4397.93C280.696 4409.31 231.333 4418.18 188.568 4424.25C146.009 4430.29 109.984 4433.54 81.5684 4433.72C43.3861 4433.96 18.9421 4428.63 10.8414 4417C-23.8815 4283.68 29.9297 4136.17 99.5699 4088C151.069 4052.38 216.479 4021.2 293 3994.57C450.48 3939.77 655.024 3904.26 882.253 3889.05C1381.62 3720.89 2026.48 3472.26 2327.57 3287.75L2324.57 3286C2292.28 3260.33 2251.02 3238.54 2197.57 3216.36C2159.82 3200.69 2117.5 3185.7 2071.57 3171.11C2036.21 3159.88 1998.72 3148.88 1959.54 3138C1921.35 3127.39 1881.55 3116.89 1840.57 3106.39C1755.15 3084.49 1664.56 3062.55 1572.57 3039.54C1527.1 3028.17 1481.28 3016.53 1435.57 3004.5C1395.38 2993.92 1355.28 2983.04 1315.57 2971.78C1271.62 2959.31 1228.14 2946.36 1185.57 2932.82C1137.21 2917.45 1090 2901.31 1044.57 2884.23C1003.65 2868.85 964.165 2852.71 926.57 2835.69C882.772 2815.86 841.536 2794.83 803.57 2772.41C762.747 2748.3 725.705 2722.58 693.325 2695C658.413 2665.26 628.919 2633.37 605.948 2599C583.356 2565.2 567.073 2529.02 558.148 2490.15C547.885 2445.46 547.352 2397.23 558.148 2345C568.043 2297.13 587.455 2245.91 617.613 2191C640.114 2150.03 668.595 2107.01 703.57 2061.78C727.857 2030.38 755.531 1999.98 786.29 1971C795.994 1961.86 806.005 1952.85 816.314 1944Z" fill="#7A5180"/>
<path d="M2156.57 4058.61C2180.36 4046.19 2203.8 4033.64 2226.84 4020.98C2715.93 4249.54 2946.91 4536.03 2954.47 4803C2946.46 4830.66 2930.84 4858.27 2908.57 4885.82C2890.23 4908.51 2867.38 4931.17 2840.57 4953.79C2809.83 4979.71 2773.89 5005.59 2733.57 5031.41C2701.82 5051.74 2667.35 5072.04 2630.57 5092.3C2593.45 5112.75 2553.98 5133.16 2512.57 5153.53C2470.74 5174.1 2426.93 5194.64 2381.57 5215.13C2341.36 5233.3 2299.93 5251.44 2257.57 5269.54C2214.43 5287.98 2170.32 5306.39 2125.57 5324.76C2076.87 5344.76 2027.4 5364.71 1977.57 5384.62C1932.77 5402.52 1887.67 5420.39 1842.57 5438.23C1796.31 5456.52 1750.06 5474.78 1704.11 5493C1657.5 5511.49 1611.21 5529.93 1565.57 5548.34C1518.42 5567.36 1471.96 5586.34 1426.57 5605.28C1377.16 5625.89 1329 5646.45 1282.57 5666.97C1235.65 5687.69 1190.49 5708.37 1147.57 5728.99C1102.96 5750.43 1060.78 5771.8 1021.57 5793.12C980.83 5815.27 943.294 5837.35 909.568 5859.37C870.462 5884.9 836.479 5910.34 808.568 5935.7C739.213 5998.7 707.358 6061.15 727.568 6123C764.818 6237 830 6382 1133.57 6470C1187.42 6398.92 1279.47 6405.26 1420 6407.05C1449.5 6407.42 1481.13 6407.6 1515 6406.81C1619.39 6404.39 1744.99 6392.86 1894.57 6350C2136.35 6280.72 2253.57 6793 2590.57 6615C2352.57 6861 2140.57 6525 1972.57 6473C1898.31 6450.02 1735.55 6516.97 1569 6552.65C1522.68 6562.57 1476.08 6570.07 1431 6572.55C1358.76 6576.52 1290.45 6567.58 1233.57 6535C1380.57 6864 1997.91 6627.54 2117.57 6695C2266.57 6779 2572.57 6863 2782.57 6723C2696.87 6883.82 2390.57 6920 2117.57 6805C2025.24 6766.11 1876.1 6804.06 1719 6837.31C1641.65 6853.69 1562.37 6868.93 1487 6873.29C1333.65 6882.18 1196.46 6846.07 1124.57 6683C641.568 6611 382.087 6298.31 503.614 5969C656.393 5555 2536.57 4970 2536.57 4757C2536.57 4740.2 2521.87 4718.61 2495.36 4694C2432.98 4630.02 2345.34 4564.75 2241.57 4505.3C2199.66 4481.29 2155.13 4458.22 2108.57 4436.58C2068.92 4418.14 2027.79 4400.74 1985.57 4384.64C1951.87 4371.8 1917.48 4359.8 1882.57 4348.78C1848.66 4338.08 1814.27 4328.3 1779.57 4319.59C1733.64 4308.06 1687.18 4298.39 1640.57 4290.9C1673.69 4277.9 1706.71 4264.63 1739.57 4251.1C1809.63 4222.25 1878.91 4192.24 1946.57 4161.21C2018.74 4128.11 2089.08 4093.85 2156.57 4058.61Z" fill="#7A5180"/>
<path d="M1385 6399C1355 6398 1326 6398 1291 6399C1453.64 6287.27 1666 6347.58 1712 6287.58C1696 6360.58 1493.05 6313.43 1385 6399Z" fill="#7A5180"/>
<path d="M1450 6580C1495.08 6577.52 1543 6568 1587 6556C1676 6594.45 1738 6557.6 1806 6523C1874 6488.4 2006.62 6520.34 2090 6572.55C1973.72 6554.98 1879.12 6544.38 1799 6619C1697 6714 1548 6686.55 1450 6580Z" fill="#7A5180"/>
<path d="M1541 6879.52C1603.5 6872.96 1667.89 6860.36 1731 6847C1887 6985.69 2021 6780.26 2200 6893.69C1956 6893.69 1987 6982.69 1837 6961.69C1757 6950.49 1644 6898.69 1541 6879.52Z" fill="#7A5180"/>
</g>
<defs>
<clipPath id="clip0_21_64">
<rect width="3021" height="6965" fill="white"/>
</clipPath>
</defs>
</svg>
